<svg width="256" height="66" viewBox="0 0 256 66" fill="none" xmlns="http://www.w3.org/2000/svg">
<path d="M116.476 15.7806C119.322 16.8669 121.209 18.6732 121.209 18.6732C121.23 17.7961 121.458 16.8957 121.787 16.1323C121.787 16.1323 120.875 14.4308 118.186 12.5872C115.297 10.6075 112 10.0554 112 10.0554C111.328 11.515 110.851 13.0825 110.602 14.7235C110.602 14.7235 113.014 14.4607 116.476 15.7806Z" fill="#7F9BC9"/>
<path d="M118.52 10.031C121.236 12.6579 122.218 15.2983 122.218 15.2983C122.721 14.492 123.389 13.7975 124.177 13.261C124.177 13.261 123.168 10.0935 121.535 7.75435C119.902 5.41574 117.255 3.47314 117.255 3.47314C115.963 4.46967 114.814 5.63983 113.843 6.94846C113.843 6.94846 116.537 8.11262 118.52 10.031Z" fill="#7F9BC9"/>
<path d="M123.298 6.75073C124.525 9.8882 124.837 12.863 124.837 12.863C125.643 12.4375 126.69 12.1086 127.648 12.0309C127.648 12.0309 127.696 9.0032 127.029 5.89215C126.25 2.25641 125.36 0 125.36 0C123.75 0.247244 122.213 0.711182 120.779 1.35872C120.779 1.35872 122.451 4.58352 123.298 6.75073Z" fill="#7F9BC9"/>
<path d="M139.525 15.7806C136.677 16.8669 134.791 18.6732 134.791 18.6732C134.77 17.7961 134.543 16.8957 134.214 16.1323C134.214 16.1323 135.126 14.4308 137.814 12.5872C140.703 10.6075 143.999 10.0554 143.999 10.0554C144.673 11.515 145.149 13.0825 145.397 14.7235C145.397 14.7235 142.986 14.4607 139.525 15.7806Z" fill="#7F9BC9"/>
<path d="M137.48 10.031C134.764 12.6579 133.782 15.2983 133.782 15.2983C133.28 14.492 132.611 13.7975 131.822 13.261C131.822 13.261 132.831 10.0935 134.465 7.75435C136.099 5.41574 138.745 3.47314 138.745 3.47314C140.037 4.46967 141.187 5.63983 142.158 6.94846C142.158 6.94846 139.463 8.11262 137.48 10.031Z" fill="#7F9BC9"/>
<path d="M132.701 6.75073C131.473 9.8882 131.162 12.863 131.162 12.863C130.357 12.4375 129.31 12.1086 128.352 12.0309C128.352 12.0309 128.304 9.0032 128.97 5.89215C129.75 2.25641 130.639 0 130.639 0C132.249 0.247244 133.786 0.711182 135.221 1.35872C135.221 1.35872 133.549 4.58352 132.701 6.75073Z" fill="#7F9BC9"/>
<path d="M118.837 26.4611C122.23 24.8453 125.652 25.1795 125.652 25.1795C124.438 24.7276 123.387 23.9464 122.613 22.9461C122.613 22.9461 119.574 22.5834 117.246 23.0527C113.721 23.7637 112.16 24.9877 112.16 24.9877C112.876 26.459 113.793 27.8158 114.875 29.0237C114.875 29.0237 116.329 27.6556 118.837 26.4611Z" fill="white"/>
<path d="M116.2 21.3467C119.659 21.1804 122.045 22.0845 122.045 22.0845C121.616 21.311 121.336 20.4466 121.241 19.5275C121.241 19.5275 118.494 17.9622 115.961 17.6226C112.455 17.1527 110.412 17.8254 110.412 17.8254C110.456 19.4859 110.732 21.0888 111.209 22.6038C111.209 22.6038 113.456 21.4785 116.2 21.3467Z" fill="white"/>
<path d="M128 29.11C132.951 29.11 135.117 33.3952 135.117 33.3952C136.661 32.71 138.088 31.8118 139.359 30.7383C139.359 30.7383 135.176 25.477 128 25.477C120.824 25.477 116.641 30.7383 116.641 30.7383C117.913 31.8118 119.339 32.71 120.883 33.3952C120.883 33.3952 123.049 29.11 128 29.11Z" fill="white"/>
<path d="M137.162 26.4611C133.77 24.8453 130.347 25.1795 130.347 25.1795C131.562 24.7276 132.613 23.9464 133.387 22.9461C133.387 22.9461 136.425 22.5834 138.753 23.0527C142.278 23.7637 143.841 24.9877 143.841 24.9877C143.124 26.459 142.207 27.8158 141.124 29.0237C141.124 29.0237 139.67 27.6556 137.162 26.4611Z" fill="white"/>
<path d="M139.8 21.3467C136.34 21.1804 133.955 22.0845 133.955 22.0845C134.384 21.311 134.664 20.4466 134.758 19.5275C134.758 19.5275 137.506 17.9622 140.038 17.6226C143.544 17.1527 145.588 17.8254 145.588 17.8254C145.544 19.4859 145.268 21.0888 144.79 22.6038C144.79 22.6038 142.544 21.4785 139.8 21.3467Z" fill="white"/>
<path fill-rule="evenodd" clip-rule="evenodd" d="M143.271 63.7416H144.954V65.0865H140.054V63.7416H141.842V51.7675H140.054V50.3951L144.954 50.3966V51.7675H143.271V57.1523L147.93 51.7675H147.173V50.3951L151.808 50.3966V51.7675H149.773L144.663 57.5946L150.21 63.7416H151.808V65.0865H147.173V63.7416H148.229L143.271 58.0366V63.7416ZM173.046 63.8032V62.0187H174.34V65.0864H165.993V63.8031L172.572 55.5456H167.252V57.337H165.993V54.2694H174.34V55.5456L167.725 63.8032H173.046ZM226.732 63.83H228.455V65.1069H225.439V55.4986H223.601V54.2225H225.439V50.398H226.732V54.2225H228.978V55.4986H226.732V63.83ZM216.48 62.0431H215.312L215.312 65.0167H216.433V63.9055C217.233 64.8236 218.181 65.3199 219.382 65.3293C221.321 65.3445 222.802 64.4962 222.759 62.2655C222.684 58.2819 216.921 59.9386 216.775 56.9941C216.713 55.7558 217.68 55.1279 218.759 55.1564C219.814 55.1842 220.923 56.1028 221.229 57.166H222.371L222.371 54.3127H221.272V55.4156C220.627 54.5134 219.841 54.0639 218.75 54.0531C216.993 54.0356 215.579 54.9594 215.617 56.9566C215.693 60.9567 221.459 59.5014 221.603 62.3167C221.683 63.8902 220.606 64.2165 219.335 64.188C218.426 64.1676 216.808 62.9793 216.48 62.0431ZM3.19359 57.9407V51.7632H5.70086C6.60199 51.7632 7.307 51.866 8.05165 52.4632C8.73727 53.0396 9.16828 53.9256 9.16828 54.8519C9.16828 55.799 8.79596 56.6437 8.09111 57.2614C7.38524 57.879 6.60198 57.9407 5.72076 57.9407H3.19359ZM3.19359 59.2999H5.85768C7.17008 59.2999 8.22803 59.1354 9.22679 58.1261C10.1084 57.2409 10.5788 56.0878 10.5788 54.8108C10.5788 53.4725 9.99065 52.1544 8.97234 51.3512C8.01253 50.6103 6.87599 50.4038 5.72076 50.4038H0V51.7632H1.78287V63.7477H0V65.1069H4.97576V63.7477H3.19359V59.2999ZM12.4396 59.0943C12.6745 57.0555 14.438 55.346 16.4161 55.346C18.5123 55.346 20.3342 56.8906 20.628 59.0943H12.4396ZM20.0403 62.0799C19.296 63.4389 17.9639 64.1804 16.4748 64.1804C14.3594 64.1804 12.5569 62.4298 12.4396 60.2059H21.8427V59.7941C21.8427 56.6024 19.492 54.1106 16.4356 54.1106C13.4579 54.1106 11.1466 56.7467 11.1466 59.8147C11.1466 62.9034 13.556 65.3951 16.5139 65.3951C18.6296 65.3951 20.5497 64.0981 21.4114 62.0799H20.0403ZM25.4588 56.4994C25.9289 54.996 27.2804 54.3578 28.75 54.2961V55.5725C26.4774 55.7785 25.4588 57.1788 25.4588 59.4853V63.83H27.1824V65.1069H22.4417V63.83H24.1658V55.5725H22.4417V54.2961H25.4588V56.4994ZM33.0821 56.1906C33.7288 54.852 35.1195 54.1106 36.5302 54.1106C37.6858 54.1106 39.4096 54.7693 40.0757 56.1906C40.3303 56.7259 40.6438 57.6936 40.6438 59.0117V63.83H42.3678V65.1069H37.6269V63.83H39.3509V59.5059C39.3509 58.5384 39.3314 57.6113 38.8612 56.7672C38.3125 55.7579 37.1569 55.4491 36.1774 55.4491C35.2761 55.4491 34.3556 55.8607 33.7679 56.5818C33.1017 57.4054 33.0821 58.3319 33.0821 59.341V63.83H34.8062V65.1069H30.0651V63.83H31.7893V55.5725H30.0651V54.2961H33.0821V56.1906ZM47.814 64.057C45.5219 64.057 43.7196 62.0799 43.7196 59.7324C43.7196 57.3642 45.561 55.4491 47.8336 55.4491C50.1061 55.4491 51.9084 57.4054 51.9084 59.753C51.9084 62.121 50.0866 64.057 47.814 64.057ZM47.814 65.3951C50.8309 65.3951 53.2012 62.8212 53.2012 59.6707C53.2012 56.6231 50.7718 54.1106 47.8531 54.1106C44.856 54.1106 42.427 56.6231 42.427 59.7735C42.427 62.8623 44.8364 65.3951 47.814 65.3951ZM59.7826 64.1187C57.5296 64.1187 55.6297 62.183 55.6297 59.7941C55.6297 57.3848 57.4709 55.4078 59.7826 55.4078C62.0356 55.4078 63.8967 57.3231 63.8967 59.7119C63.8967 62.1419 62.0943 64.1187 59.7826 64.1187ZM63.8576 65.1069H66.8741V63.83H65.1501V50.4038H62.1334V51.6806H63.8576V56.7878C63.0344 55.099 61.3695 54.1106 59.5867 54.1106C56.7266 54.1106 54.3367 56.7054 54.3367 59.7119C54.3367 60.7823 54.7087 61.9359 55.2377 62.8212C56.139 64.3247 58.0195 65.3951 59.6453 65.3951C61.4282 65.3951 62.9757 64.4275 63.8576 62.8212V65.1069ZM85.0921 65.1069H82.3691L78.0402 58.765H78.5689C79.6265 58.765 80.6456 58.8057 81.5662 58.2083C82.5454 57.5702 83.1333 56.4583 83.1333 55.2637C83.1333 54.2344 82.7809 53.2867 82.0754 52.6075C81.2529 51.8043 80.3519 51.7632 79.2936 51.7632H76.5513V63.7477H78.2163V65.1069H73.3387V63.7477H75.1406V51.7632H73.3387V50.4038H79.3918C80.7434 50.4038 81.8795 50.5273 82.9573 51.4955C84.0147 52.4426 84.5436 53.7607 84.5436 55.2019C84.5436 57.6936 82.7022 59.7324 80.3128 59.7324L83.2315 63.7477H85.0921V65.1069ZM88.7558 63.83H90.4798V65.1069H85.6996V63.83H87.4624V55.5725H85.7388V54.2961H88.7558V63.83ZM88.7558 52.5249H87.4624V50.4038H88.7558V52.5249ZM100.862 57.5497H99.6474C98.9033 56.2729 97.5512 55.4697 96.1215 55.4697C93.8489 55.4697 92.066 57.4054 92.066 59.7941C92.066 62.2036 93.9076 64.0365 96.2193 64.0365C97.6882 64.0365 99.138 63.1712 99.7454 61.73H101.195C100.431 63.9744 98.3547 65.3951 96.1019 65.3951C93.183 65.3951 90.7734 62.8417 90.7734 59.8147C90.7734 58.27 91.3413 56.8495 92.2816 55.8402C93.2613 54.7901 94.5541 54.1106 96.0432 54.1106C97.4926 54.1106 98.7073 54.7282 99.6474 55.8402V54.2961H100.862V57.5497ZM107.189 55.4491C109.443 55.4491 111.284 57.3642 111.284 59.7324C111.284 62.1419 109.462 64.0776 107.131 64.0776C104.878 64.0776 103.037 62.1004 103.037 59.7735C103.037 57.3848 104.917 55.4491 107.189 55.4491ZM111.264 65.1069H114.261V63.83H112.557V55.5725H114.261V54.2961H111.264V56.6643C110.324 55.0166 108.913 54.1106 107.052 54.1106C105.191 54.1106 103.448 55.099 102.605 56.6643C102.175 57.4671 101.743 58.1878 101.743 59.753C101.704 60.9472 102.057 61.9771 102.566 62.8623C103.468 64.4275 105.191 65.3951 107.072 65.3951C108.854 65.3951 110.363 64.4894 111.264 62.8623V65.1069ZM118.66 56.4994C119.13 54.996 120.482 54.3578 121.952 54.2961V55.5725C119.679 55.7785 118.66 57.1788 118.66 59.4853V63.83H120.384V65.1069H115.643V63.83H117.367V55.5725H115.643V54.2961H118.66V56.4994ZM127.438 64.1187C125.185 64.1187 123.284 62.183 123.284 59.7941C123.284 57.3848 125.125 55.4078 127.438 55.4078C129.69 55.4078 131.551 57.3231 131.551 59.7119C131.551 62.1419 129.749 64.1187 127.438 64.1187ZM131.512 65.1069H134.529V63.83H132.805V50.4038H129.788V51.6806H131.512V56.7878C130.689 55.099 129.024 54.1106 127.242 54.1106C124.381 54.1106 121.992 56.7054 121.992 59.7119C121.992 60.7823 122.363 61.9359 122.893 62.8212C123.794 64.3247 125.674 65.3951 127.3 65.3951C129.083 65.3951 130.631 64.4275 131.512 62.8212V65.1069ZM157.463 55.4491C159.716 55.4491 161.557 57.3642 161.557 59.7324C161.557 62.1419 159.735 64.0776 157.403 64.0776C155.15 64.0776 153.309 62.1004 153.309 59.7735C153.309 57.3848 155.19 55.4491 157.463 55.4491ZM161.537 65.1069H164.534V63.83H162.83V55.5725H164.534V54.2961H161.537V56.6643C160.596 55.0166 159.186 54.1106 157.325 54.1106C155.464 54.1106 153.721 55.099 152.878 56.6643C152.448 57.4671 152.017 58.1878 152.017 59.753C151.977 60.9472 152.33 61.9771 152.839 62.8623C153.74 64.4275 155.464 65.3951 157.345 65.3951C159.128 65.3951 160.636 64.4894 161.537 62.8623V65.1069ZM181.007 55.4491C183.26 55.4491 185.101 57.3642 185.101 59.7324C185.101 62.1419 183.279 64.0776 180.947 64.0776C178.695 64.0776 176.853 62.1004 176.853 59.7735C176.853 57.3848 178.734 55.4491 181.007 55.4491ZM185.081 65.1069H188.079V63.83H186.374V55.5725H188.079V54.2961H185.081V56.6643C184.14 55.0166 182.73 54.1106 180.869 54.1106C179.008 54.1106 177.265 55.099 176.422 56.6643C175.992 57.4671 175.561 58.1878 175.561 59.753C175.521 60.9472 175.874 61.9771 176.383 62.8623C177.284 64.4275 179.008 65.3951 180.889 65.3951C182.672 65.3951 184.18 64.4894 185.081 62.8623V65.1069ZM192.797 59.1149L196.577 55.5725H195.03V54.2961H199.869V55.5725H198.183L194.325 59.2588L198.653 63.83H200.515V65.1069H195.461V63.83H196.911L192.797 59.4648V63.83H194.364V65.1069H189.74V63.83H191.503V51.6806H189.74V50.4038H192.797V59.1149ZM204.894 56.1906C205.54 54.852 206.931 54.1106 208.342 54.1106C209.497 54.1106 211.221 54.7693 211.887 56.1906C212.142 56.7259 212.455 57.6936 212.455 59.0117V63.83H214.179V65.1069H209.438V63.83H211.163V59.5059C211.163 58.5384 211.143 57.6113 210.673 56.7672C210.124 55.7579 208.969 55.4491 207.989 55.4491C207.088 55.4491 206.167 55.8607 205.58 56.5818C204.913 57.4054 204.894 58.3319 204.894 59.341V63.83H206.618V65.1069H201.877V63.83H203.601V51.6806H201.877V50.4043H204.894V56.1906ZM235.227 55.4491C237.48 55.4491 239.321 57.3642 239.321 59.7324C239.321 62.1419 237.499 64.0776 235.168 64.0776C232.915 64.0776 231.074 62.1004 231.074 59.7735C231.074 57.3848 232.954 55.4491 235.227 55.4491ZM239.302 65.1069H242.299V63.83H240.595V55.5725H242.299V54.2961H239.302V56.6643C238.361 55.0166 236.951 54.1106 235.09 54.1106C233.229 54.1106 231.486 55.099 230.643 56.6643C230.212 57.4671 229.781 58.1878 229.781 59.753C229.742 60.9472 230.095 61.9771 230.604 62.8623C231.505 64.4275 233.229 65.3951 235.11 65.3951C236.893 65.3951 238.4 64.4894 239.302 62.8623V65.1069ZM246.714 56.1906C247.361 54.852 248.752 54.1106 250.162 54.1106C251.318 54.1106 253.042 54.7693 253.708 56.1906C253.963 56.7259 254.277 57.6936 254.277 59.0117V63.83H256V65.1069H251.259V63.83H252.983V59.5059C252.983 58.5384 252.964 57.6113 252.494 56.7672C251.945 55.7579 250.789 55.4491 249.81 55.4491C248.909 55.4491 247.988 55.8607 247.401 56.5818C246.734 57.4054 246.714 58.3319 246.714 59.341V63.83H248.438V65.1069H243.698V63.83H245.422V55.5725H243.698V54.2961H246.714V56.1906Z" fill="white"/>
</svg>
