<svg width="335" height="24" viewBox="0 0 335 24" fill="none" xmlns="http://www.w3.org/2000/svg">
<path fill-rule="evenodd" clip-rule="evenodd" d="M136.257 16.8924H137.467V17.8119H133.945V16.8924H135.23V8.70622H133.945V7.76797L137.467 7.76896V8.70622H136.257V12.3876L139.606 8.70622H139.062V7.76797L142.392 7.76896V8.70622H140.93L137.258 12.6899L141.244 16.8924H142.392V17.8119H139.062V16.8924H139.82L136.257 12.9922V16.8924ZM157.655 16.9345V15.7145H158.586V17.8118H152.587V16.9344L157.315 11.2891H153.492V12.5138H152.587V10.4166H158.585V11.2891L153.832 16.9345H157.655ZM196.238 16.9528H197.476V17.8258H195.309V11.257H193.988V10.3846H195.309V7.76995H196.238V10.3846H197.852V11.257H196.238V16.9528ZM188.871 15.7312H188.031L188.031 17.7642H188.837V17.0045C189.412 17.6321 190.093 17.9714 190.956 17.9779C192.349 17.9882 193.414 17.4083 193.383 15.8832C193.329 13.1599 189.187 14.2924 189.082 12.2794C189.038 11.4328 189.733 11.0036 190.508 11.023C191.266 11.042 192.063 11.67 192.283 12.3969H193.104L193.104 10.4462H192.314V11.2002C191.85 10.5835 191.286 10.2762 190.501 10.2688C189.239 10.2568 188.223 10.8884 188.25 12.2538C188.304 14.9885 192.449 13.9935 192.552 15.9182C192.609 16.994 191.835 17.217 190.922 17.1976C190.269 17.1836 189.106 16.3713 188.871 15.7312ZM35.5881 12.9265V8.70326H37.39C38.0376 8.70326 38.5443 8.77355 39.0794 9.18182C39.5722 9.57591 39.8819 10.1816 39.8819 10.8149C39.8819 11.4624 39.6143 12.0398 39.1078 12.4622C38.6005 12.8844 38.0376 12.9265 37.4043 12.9265H35.5881ZM35.5881 13.8558H37.5027C38.4459 13.8558 39.2062 13.7433 39.924 13.0533C40.5575 12.4481 40.8956 11.6598 40.8956 10.7868C40.8956 9.87186 40.4729 8.97072 39.7411 8.42163C39.0513 7.91508 38.2345 7.77389 37.4043 7.77389H33.293V8.70326H34.5743V16.8966H33.293V17.8258H36.8689V16.8966H35.5881V13.8558ZM42.2329 13.7152C42.4017 12.3214 43.6691 11.1527 45.0907 11.1527C46.5971 11.1527 47.9065 12.2087 48.1176 13.7152H42.2329ZM47.6953 15.7563C47.1604 16.6855 46.203 17.1924 45.1329 17.1924C43.6126 17.1924 42.3172 15.9956 42.2329 14.4752H48.9907V14.1937C48.9907 12.0116 47.3012 10.3081 45.1047 10.3081C42.9647 10.3081 41.3037 12.1103 41.3037 14.2077C41.3037 16.3194 43.0353 18.0229 45.161 18.0229C46.6815 18.0229 48.0614 17.1362 48.6807 15.7563H47.6953ZM51.5894 11.9412C51.9272 10.9134 52.8985 10.477 53.9547 10.4349V11.3075C52.3214 11.4483 51.5894 12.4057 51.5894 13.9826V16.9528H52.8281V17.8258H49.4211V16.9528H50.6601V11.3075H49.4211V10.4349H51.5894V11.9412ZM57.0681 11.7301C57.5328 10.8149 58.5322 10.3081 59.546 10.3081C60.3765 10.3081 61.6154 10.7584 62.0941 11.7301C62.2771 12.0961 62.5023 12.7576 62.5023 13.6587V16.9528H63.7413V17.8258H60.3342V16.9528H61.5732V13.9966C61.5732 13.3352 61.5592 12.7014 61.2213 12.1243C60.827 11.4343 59.9965 11.2232 59.2925 11.2232C58.6448 11.2232 57.9832 11.5046 57.5609 11.9976C57.0821 12.5606 57.0681 13.194 57.0681 13.8839V16.9528H58.307V17.8258H54.8998V16.9528H56.1389V11.3075H54.8998V10.4349H57.0681V11.7301ZM67.6554 17.108C66.0081 17.108 64.7129 15.7563 64.7129 14.1515C64.7129 12.5325 66.0362 11.2232 67.6694 11.2232C69.3027 11.2232 70.5979 12.5606 70.5979 14.1655C70.5979 15.7845 69.2886 17.108 67.6554 17.108ZM67.6554 18.0229C69.8235 18.0229 71.527 16.2631 71.527 14.1093C71.527 12.0258 69.7811 10.3081 67.6835 10.3081C65.5295 10.3081 63.7839 12.0258 63.7839 14.1796C63.7839 16.2912 65.5155 18.0229 67.6554 18.0229ZM76.2568 17.1502C74.6377 17.1502 73.2723 15.8269 73.2723 14.1937C73.2723 12.5465 74.5955 11.1949 76.2568 11.1949C77.876 11.1949 79.2135 12.5043 79.2135 14.1374C79.2135 15.7988 77.9182 17.1502 76.2568 17.1502ZM79.1854 17.8258H81.3533V16.9528H80.1143V7.77389H77.9463V8.64678H79.1854V12.1384C78.5938 10.9838 77.3973 10.3081 76.116 10.3081C74.0606 10.3081 72.343 12.082 72.343 14.1374C72.343 14.8693 72.6104 15.6579 72.9905 16.2631C73.6383 17.291 74.9897 18.0229 76.1582 18.0229C77.4395 18.0229 78.5516 17.3613 79.1854 16.2631V17.8258ZM94.4459 17.8258H92.4891L89.378 13.4901H89.7579C90.518 13.4901 91.2504 13.5179 91.912 13.1095C92.6157 12.6733 93.0383 11.9131 93.0383 11.0964C93.0383 10.3927 92.785 9.74485 92.278 9.28047C91.6868 8.73138 91.0393 8.70326 90.2788 8.70326H88.3079V16.8966H89.5045V17.8258H85.9991V16.8966H87.2941V8.70326H85.9991V7.77389H90.3493C91.3207 7.77389 92.1371 7.85836 92.9118 8.52027C93.6717 9.16776 94.0517 10.0689 94.0517 11.0541C94.0517 12.7576 92.7284 14.1515 91.0112 14.1515L93.1088 16.8966H94.4459V17.8258ZM97.0789 16.9528H98.3179V17.8258H94.8826V16.9528H96.1494V11.3075H94.9107V10.4349H97.0789V16.9528ZM97.0789 9.22399H96.1494V7.77389H97.0789V9.22399ZM105.779 12.6592H104.906C104.372 11.7863 103.4 11.2372 102.372 11.2372C100.739 11.2372 99.4579 12.5606 99.4579 14.1937C99.4579 15.8409 100.781 17.094 102.443 17.094C103.498 17.094 104.54 16.5025 104.977 15.5171H106.019C105.469 17.0516 103.977 18.0229 102.358 18.0229C100.261 18.0229 98.5289 16.2772 98.5289 14.2077C98.5289 13.1517 98.9371 12.1805 99.6128 11.4905C100.317 10.7726 101.246 10.3081 102.316 10.3081C103.358 10.3081 104.231 10.7303 104.906 11.4905V10.4349H105.779V12.6592ZM110.327 11.2232C111.946 11.2232 113.269 12.5325 113.269 14.1515C113.269 15.7988 111.96 17.1221 110.284 17.1221C108.665 17.1221 107.342 15.7704 107.342 14.1796C107.342 12.5465 108.694 11.2232 110.327 11.2232ZM113.255 17.8258H115.409V16.9528H114.184V11.3075H115.409V10.4349H113.255V12.0539C112.579 10.9275 111.566 10.3081 110.228 10.3081C108.89 10.3081 107.638 10.9838 107.032 12.0539C106.723 12.6027 106.413 13.0955 106.413 14.1655C106.385 14.982 106.638 15.6861 107.004 16.2912C107.652 17.3613 108.89 18.0229 110.242 18.0229C111.523 18.0229 112.607 17.4036 113.255 16.2912V17.8258ZM118.57 11.9412C118.908 10.9134 119.88 10.477 120.936 10.4349V11.3075C119.302 11.4483 118.57 12.4057 118.57 13.9826V16.9528H119.809V17.8258H116.402V16.9528H117.641V11.3075H116.402V10.4349H118.57V11.9412ZM124.878 17.1502C123.259 17.1502 121.893 15.8269 121.893 14.1937C121.893 12.5465 123.217 11.1949 124.878 11.1949C126.497 11.1949 127.834 12.5043 127.834 14.1374C127.834 15.7988 126.539 17.1502 124.878 17.1502ZM127.806 17.8258H129.974V16.9528H128.736V7.77389H126.567V8.64678H127.806V12.1384C127.215 10.9838 126.018 10.3081 124.737 10.3081C122.682 10.3081 120.965 12.082 120.965 14.1374C120.965 14.8693 121.231 15.6579 121.612 16.2631C122.259 17.291 123.611 18.0229 124.779 18.0229C126.061 18.0229 127.173 17.3613 127.806 16.2631V17.8258ZM146.456 11.2232C148.075 11.2232 149.399 12.5325 149.399 14.1515C149.399 15.7988 148.089 17.1221 146.414 17.1221C144.795 17.1221 143.471 15.7704 143.471 14.1796C143.471 12.5465 144.823 11.2232 146.456 11.2232ZM149.385 17.8258H151.539V16.9528H150.314V11.3075H151.539V10.4349H149.385V12.0539C148.708 10.9275 147.695 10.3081 146.357 10.3081C145.02 10.3081 143.767 10.9838 143.162 12.0539C142.852 12.6027 142.542 13.0955 142.542 14.1655C142.514 14.982 142.768 15.6861 143.134 16.2912C143.781 17.3613 145.02 18.0229 146.372 18.0229C147.653 18.0229 148.737 17.4036 149.385 16.2912V17.8258ZM163.377 11.2232C164.996 11.2232 166.319 12.5325 166.319 14.1515C166.319 15.7988 165.01 17.1221 163.334 17.1221C161.715 17.1221 160.392 15.7704 160.392 14.1796C160.392 12.5465 161.743 11.2232 163.377 11.2232ZM166.305 17.8258H168.459V16.9528H167.234V11.3075H168.459V10.4349H166.305V12.0539C165.629 10.9275 164.615 10.3081 163.278 10.3081C161.94 10.3081 160.688 10.9838 160.082 12.0539C159.773 12.6027 159.463 13.0955 159.463 14.1655C159.435 14.982 159.688 15.6861 160.054 16.2912C160.702 17.3613 161.94 18.0229 163.292 18.0229C164.574 18.0229 165.657 17.4036 166.305 16.2912V17.8258ZM171.85 13.7293L174.567 11.3075H173.454V10.4349H176.932V11.3075H175.721L172.948 13.8277L176.059 16.9528H177.396V17.8258H173.764V16.9528H174.806L171.85 13.9685V16.9528H172.976V17.8258H169.653V16.9528H170.92V8.64678H169.653V7.77389H171.85V13.7293ZM180.544 11.7301C181.008 10.8149 182.008 10.3081 183.022 10.3081C183.852 10.3081 185.091 10.7584 185.57 11.7301C185.753 12.0961 185.978 12.7576 185.978 13.6587V16.9528H187.217V17.8258H183.81V16.9528H185.049V13.9966C185.049 13.3352 185.035 12.7014 184.697 12.1243C184.303 11.4343 183.472 11.2232 182.768 11.2232C182.12 11.2232 181.459 11.5046 181.036 11.9976C180.558 12.5606 180.544 13.194 180.544 13.8839V16.9528H181.783V17.8258H178.375V16.9528H179.614V8.64678H178.375V7.77426H180.544V11.7301ZM202.343 11.2232C203.962 11.2232 205.286 12.5325 205.286 14.1515C205.286 15.7988 203.976 17.1221 202.301 17.1221C200.682 17.1221 199.359 15.7704 199.359 14.1796C199.359 12.5465 200.71 11.2232 202.343 11.2232ZM205.272 17.8258H207.426V16.9528H206.201V11.3075H207.426V10.4349H205.272V12.0539C204.595 10.9275 203.582 10.3081 202.244 10.3081C200.907 10.3081 199.654 10.9838 199.049 12.0539C198.739 12.6027 198.43 13.0955 198.43 14.1655C198.401 14.982 198.655 15.6861 199.021 16.2912C199.668 17.3613 200.907 18.0229 202.259 18.0229C203.54 18.0229 204.624 17.4036 205.272 16.2912V17.8258ZM210.599 11.7301C211.063 10.8149 212.063 10.3081 213.077 10.3081C213.908 10.3081 215.146 10.7584 215.625 11.7301C215.808 12.0961 216.033 12.7576 216.033 13.6587V16.9528H217.272V17.8258H213.865V16.9528H215.104V13.9966C215.104 13.3352 215.09 12.7014 214.752 12.1243C214.358 11.4343 213.527 11.2232 212.823 11.2232C212.176 11.2232 211.514 11.5046 211.092 11.9976C210.613 12.5606 210.599 13.194 210.599 13.8839V16.9528H211.837V17.8258H208.431V16.9528H209.67V11.3075H208.431V10.4349H210.599V11.7301Z" fill="white"/>
<path d="M4.3579 11.341C6.40382 12.1216 7.75935 13.4198 7.75935 13.4198C7.77477 12.7895 7.93876 12.1423 8.17477 11.5937C8.17477 11.5937 7.51977 10.3709 5.58704 9.04596C3.51103 7.62324 1.14168 7.22644 1.14168 7.22644C0.658437 8.27542 0.315389 9.40195 0.136963 10.5813C0.136963 10.5813 1.87029 10.3924 4.3579 11.341Z" fill="#7F9BC9"/>
<path d="M5.82768 7.20895C7.77952 9.09679 8.48532 10.9944 8.48532 10.9944C8.84637 10.4149 9.32666 9.9158 9.89289 9.53021C9.89289 9.53021 9.16809 7.25382 7.9942 5.57277C6.82043 3.89209 4.91853 2.496 4.91853 2.496C3.98977 3.21217 3.16374 4.05313 2.46606 4.9936C2.46606 4.9936 4.40212 5.83024 5.82768 7.20895Z" fill="#7F9BC9"/>
<path d="M9.26134 4.85153C10.1431 7.10634 10.3674 9.24425 10.3674 9.24425C10.9463 8.93845 11.6988 8.70206 12.3869 8.64621C12.3869 8.64621 12.4218 6.47031 11.9425 4.2345C11.3825 1.62161 10.7429 0 10.7429 0C9.58625 0.177686 8.48166 0.511104 7.45044 0.976467C7.45044 0.976467 8.65208 3.29403 9.26134 4.85153Z" fill="#7F9BC9"/>
<path d="M20.9226 11.341C18.876 12.1216 17.5208 13.4198 17.5208 13.4198C17.5057 12.7895 17.3421 12.1423 17.1057 11.5937C17.1057 11.5937 17.7611 10.3709 19.6931 9.04596C21.7692 7.62324 24.1385 7.22644 24.1385 7.22644C24.6222 8.27542 24.9647 9.40195 25.1428 10.5813C25.1428 10.5813 23.4098 10.3924 20.9226 11.341Z" fill="#7F9BC9"/>
<path d="M19.4532 7.20895C17.5014 9.09679 16.7956 10.9944 16.7956 10.9944C16.435 10.4149 15.9543 9.9158 15.3875 9.53021C15.3875 9.53021 16.112 7.25382 17.2866 5.57277C18.4605 3.89209 20.3624 2.496 20.3624 2.496C21.2908 3.21217 22.1171 4.05313 22.815 4.9936C22.815 4.9936 20.8784 5.83024 19.4532 7.20895Z" fill="#7F9BC9"/>
<path d="M16.0191 4.85153C15.1366 7.10634 14.9127 9.24425 14.9127 9.24425C14.334 8.93845 13.5817 8.70206 12.8934 8.64621C12.8934 8.64621 12.8586 6.47031 13.3374 4.2345C13.8978 1.62161 14.537 0 14.537 0C15.6937 0.177686 16.7988 0.511104 17.83 0.976467C17.83 0.976467 16.628 3.29403 16.0191 4.85153Z" fill="#7F9BC9"/>
<path d="M6.055 19.0168C8.49353 17.8556 10.9524 18.0958 10.9524 18.0958C10.0798 17.771 9.32499 17.2096 8.7685 16.4907C8.7685 16.4907 6.58448 16.23 4.91132 16.5672C2.37833 17.0782 1.2561 17.9579 1.2561 17.9579C1.77079 19.0153 2.42962 19.9904 3.20745 20.8585C3.20745 20.8585 4.25261 19.8752 6.055 19.0168Z" fill="white"/>
<path d="M4.15978 15.3412C6.64603 15.2217 8.36038 15.8715 8.36038 15.8715C8.05187 15.3156 7.85063 14.6944 7.78281 14.0338C7.78281 14.0338 5.80853 12.9089 3.98814 12.6648C1.46884 12.3271 0 12.8106 0 12.8106C0.0319367 14.004 0.230339 15.1559 0.573381 16.2447C0.573381 16.2447 2.1876 15.4359 4.15978 15.3412Z" fill="white"/>
<path d="M12.64 20.9204C16.1983 20.9204 17.7552 24 17.7552 24C18.8648 23.5076 19.8901 22.8621 20.8035 22.0906C20.8035 22.0906 17.797 18.3095 12.64 18.3095C7.4833 18.3095 4.47656 22.0906 4.47656 22.0906C5.39064 22.8621 6.41594 23.5076 7.52509 24C7.52509 24 9.08174 20.9204 12.64 20.9204Z" fill="white"/>
<path d="M19.2248 19.0168C16.7866 17.8556 14.3269 18.0958 14.3269 18.0958C15.2003 17.771 15.9552 17.2096 16.5117 16.4907C16.5117 16.4907 18.6952 16.23 20.3684 16.5672C22.9015 17.0782 24.0243 17.9579 24.0243 17.9579C23.5091 19.0153 22.8506 19.9904 22.0721 20.8585C22.0721 20.8585 21.0271 19.8752 19.2248 19.0168Z" fill="white"/>
<path d="M21.1202 15.3412C18.6337 15.2217 16.9197 15.8715 16.9197 15.8715C17.2279 15.3156 17.4291 14.6944 17.497 14.0338C17.497 14.0338 19.4718 12.9089 21.2917 12.6648C23.8111 12.3271 25.2802 12.8106 25.2802 12.8106C25.2481 14.004 25.0497 15.1559 24.7067 16.2447C24.7067 16.2447 23.0921 15.4359 21.1202 15.3412Z" fill="white"/>
</svg>
